<?xml version="1.0" encoding="UTF-8"?>
<svg id="Layer_2" data-name="Layer 2" xmlns="http://www.w3.org/2000/svg" xmlns:xlink="http://www.w3.org/1999/xlink" viewBox="0 0 91.11 105.63">
  <defs>
    <style>
      .cls-1 {
        fill: url(#linear-gradient-15);
      }

      .cls-2 {
        fill: url(#linear-gradient-13);
      }

      .cls-3 {
        fill: url(#linear-gradient-28);
      }

      .cls-4 {
        font-family: Helvetica, Helvetica;
        font-size: 6.92px;
      }

      .cls-5 {
        fill: url(#linear-gradient-2);
      }

      .cls-6 {
        fill: url(#linear-gradient-25);
      }

      .cls-7 {
        fill: url(#linear-gradient-10);
      }

      .cls-8 {
        fill: url(#linear-gradient-12);
      }

      .cls-9 {
        fill: url(#linear-gradient-27);
      }

      .cls-10 {
        fill: url(#linear-gradient-26);
      }

      .cls-11 {
        fill: url(#linear-gradient-4);
      }

      .cls-12 {
        fill: url(#linear-gradient-35);
      }

      .cls-13 {
        fill: url(#linear-gradient-30);
      }

      .cls-14 {
        fill: url(#linear-gradient-3);
      }

      .cls-15 {
        fill: url(#linear-gradient-34);
      }

      .cls-16 {
        fill: url(#linear-gradient-5);
      }

      .cls-17 {
        fill: url(#linear-gradient-22);
      }

      .cls-18 {
        fill: url(#linear-gradient-24);
      }

      .cls-19 {
        fill: url(#linear-gradient-33);
      }

      .cls-20 {
        fill: url(#linear-gradient-8);
      }

      .cls-21 {
        fill: url(#linear-gradient-14);
      }

      .cls-22 {
        fill: url(#linear-gradient-29);
      }

      .cls-23 {
        fill: url(#linear-gradient-20);
      }

      .cls-24 {
        fill: url(#linear-gradient-17);
      }

      .cls-25 {
        fill: url(#linear-gradient-7);
      }

      .cls-26 {
        fill: url(#linear-gradient-9);
      }

      .cls-27 {
        fill: url(#linear-gradient-11);
      }

      .cls-28 {
        letter-spacing: -.02em;
      }

      .cls-29 {
        fill: url(#linear-gradient-19);
      }

      .cls-30 {
        fill: url(#linear-gradient-6);
      }

      .cls-31 {
        fill: url(#linear-gradient-36);
      }

      .cls-32 {
        fill: url(#linear-gradient-21);
      }

      .cls-33 {
        fill: url(#linear-gradient-32);
      }

      .cls-34 {
        fill: url(#linear-gradient-16);
      }

      .cls-35 {
        fill: url(#linear-gradient);
      }

      .cls-36 {
        fill: url(#linear-gradient-23);
      }

      .cls-37 {
        fill: url(#linear-gradient-31);
      }

      .cls-38 {
        fill: url(#linear-gradient-18);
      }
    </style>
    <linearGradient id="linear-gradient" x1="48.07" y1="46.03" x2="48.07" y2="100.74" gradientUnits="userSpaceOnUse">
      <stop offset="0" stop-color="#fff"/>
      <stop offset=".12" stop-color="#fafafa"/>
      <stop offset=".27" stop-color="#ebebeb"/>
      <stop offset=".43" stop-color="#d3d3d3"/>
      <stop offset=".6" stop-color="#b2b2b2"/>
      <stop offset=".78" stop-color="#868686"/>
      <stop offset=".96" stop-color="#535353"/>
      <stop offset="1" stop-color="#454545"/>
    </linearGradient>
    <linearGradient id="linear-gradient-2" x1="46.27" y1="57.77" x2="46.27" y2="87.92" xlink:href="#linear-gradient"/>
    <linearGradient id="linear-gradient-3" x1="46.27" y1="57.77" x2="46.27" y2="87.92" xlink:href="#linear-gradient"/>
    <linearGradient id="linear-gradient-4" x1="46.27" y1="57.77" x2="46.27" y2="87.92" xlink:href="#linear-gradient"/>
    <linearGradient id="linear-gradient-5" x1="70.34" y1="54.2" x2="70.34" y2="92.52" xlink:href="#linear-gradient"/>
    <linearGradient id="linear-gradient-6" x1="70.34" y1="54.2" x2="70.34" y2="92.52" xlink:href="#linear-gradient"/>
    <linearGradient id="linear-gradient-7" x1="70.34" y1="54.2" x2="70.34" y2="92.52" xlink:href="#linear-gradient"/>
    <linearGradient id="linear-gradient-8" x1="70.34" y1="54.2" x2="70.34" y2="92.52" xlink:href="#linear-gradient"/>
    <linearGradient id="linear-gradient-9" x1="70.34" y1="54.2" x2="70.34" y2="92.52" xlink:href="#linear-gradient"/>
    <linearGradient id="linear-gradient-10" x1="70.34" y1="54.2" x2="70.34" y2="92.52" xlink:href="#linear-gradient"/>
    <linearGradient id="linear-gradient-11" x1="70.34" y1="54.2" x2="70.34" y2="92.52" xlink:href="#linear-gradient"/>
    <linearGradient id="linear-gradient-12" x1="70.34" y1="54.2" x2="70.34" y2="92.52" xlink:href="#linear-gradient"/>
    <linearGradient id="linear-gradient-13" x1="21.89" y1="53.97" x2="21.89" y2="92.53" xlink:href="#linear-gradient"/>
    <linearGradient id="linear-gradient-14" x1="21.89" y1="53.97" x2="21.89" y2="92.53" xlink:href="#linear-gradient"/>
    <linearGradient id="linear-gradient-15" x1="21.89" y1="53.97" x2="21.89" y2="92.53" xlink:href="#linear-gradient"/>
    <linearGradient id="linear-gradient-16" x1="21.89" y1="53.97" x2="21.89" y2="92.53" xlink:href="#linear-gradient"/>
    <linearGradient id="linear-gradient-17" x1="21.89" y1="53.97" x2="21.89" y2="92.53" xlink:href="#linear-gradient"/>
    <linearGradient id="linear-gradient-18" x1="21.89" y1="53.97" x2="21.89" y2="92.53" xlink:href="#linear-gradient"/>
    <linearGradient id="linear-gradient-19" x1="21.89" y1="53.97" x2="21.89" y2="92.53" xlink:href="#linear-gradient"/>
    <linearGradient id="linear-gradient-20" x1="21.89" y1="53.97" x2="21.89" y2="92.53" xlink:href="#linear-gradient"/>
    <linearGradient id="linear-gradient-21" x1="48.93" y1="79.86" x2="48.93" y2="150.73" xlink:href="#linear-gradient"/>
    <linearGradient id="linear-gradient-22" x1="48.93" y1="79.86" x2="48.93" y2="150.73" xlink:href="#linear-gradient"/>
    <linearGradient id="linear-gradient-23" x1="48.93" y1="79.86" x2="48.93" y2="150.73" xlink:href="#linear-gradient"/>
    <linearGradient id="linear-gradient-24" x1="48.93" y1="79.86" x2="48.93" y2="150.73" xlink:href="#linear-gradient"/>
    <linearGradient id="linear-gradient-25" x1="48.93" y1="79.86" x2="48.93" y2="150.73" xlink:href="#linear-gradient"/>
    <linearGradient id="linear-gradient-26" x1="48.93" y1="79.86" x2="48.93" y2="150.73" xlink:href="#linear-gradient"/>
    <linearGradient id="linear-gradient-27" x1="48.93" y1="79.86" x2="48.93" y2="150.73" xlink:href="#linear-gradient"/>
    <linearGradient id="linear-gradient-28" x1="48.93" y1="79.86" x2="48.93" y2="150.73" xlink:href="#linear-gradient"/>
    <linearGradient id="linear-gradient-29" x1="48.93" y1="79.86" x2="48.93" y2="150.73" xlink:href="#linear-gradient"/>
    <linearGradient id="linear-gradient-30" x1="48.93" y1="79.86" x2="48.93" y2="150.73" xlink:href="#linear-gradient"/>
    <linearGradient id="linear-gradient-31" x1="48.93" y1="79.86" x2="48.93" y2="150.73" xlink:href="#linear-gradient"/>
    <linearGradient id="linear-gradient-32" x1="48.93" y1="79.86" x2="48.93" y2="150.73" xlink:href="#linear-gradient"/>
    <linearGradient id="linear-gradient-33" x1="48.93" y1="79.86" x2="48.93" y2="150.73" xlink:href="#linear-gradient"/>
    <linearGradient id="linear-gradient-34" x1="35.1" y1="-5.97" x2="37.05" y2="69.33" xlink:href="#linear-gradient"/>
    <linearGradient id="linear-gradient-35" x1="57" y1="-18.08" x2="56.27" y2="80.47" xlink:href="#linear-gradient"/>
    <linearGradient id="linear-gradient-36" x1="62.55" y1="-18.04" x2="61.81" y2="80.52" xlink:href="#linear-gradient"/>
  </defs>
  <g id="Text">
    <g>
      <g>
        <g>
          <path class="cls-35" d="M0,65.77v-8.07h2.3c.54,0,1.09.08,1.65.23s1.06.39,1.52.73.83.78,1.12,1.32c.28.54.42,1.2.42,1.98,0,.67-.12,1.25-.37,1.74-.24.48-.58.88-.99,1.18-.42.31-.9.53-1.43.68-.54.15-1.1.22-1.68.22H0ZM2.29,65.36c.66,0,1.25-.13,1.76-.39.52-.26.92-.66,1.22-1.19.3-.53.44-1.21.44-2.02,0-.63-.12-1.19-.35-1.68-.23-.5-.55-.91-.95-1.24s-.86-.56-1.37-.7c-.28,0-.61.02-.97.07-.36.05-.66.11-.88.18v6.85c.11.03.28.06.49.08.21.02.41.03.61.03Z"/>
          <path class="cls-35" d="M10.5,65.92c-.5,0-.96-.11-1.36-.32-.4-.21-.72-.52-.94-.93-.23-.41-.34-.9-.34-1.49,0-.67.13-1.24.39-1.7.26-.46.6-.8,1.02-1.03.42-.23.87-.35,1.35-.35.38,0,.73.1,1.04.3s.56.5.76.89.29.88.29,1.47h-3.89c0,.63.1,1.13.3,1.49.2.36.46.62.78.76.32.15.66.22,1.01.22.32,0,.6-.03.84-.1.24-.06.47-.14.67-.23v.43c-.25.15-.54.28-.87.4-.33.12-.67.18-1.05.18ZM8.86,62.41h2.85c-.02-.37-.1-.66-.24-.89-.13-.23-.29-.4-.48-.52-.18-.12-.37-.2-.55-.24-.18-.04-.33-.07-.46-.07-.28.13-.52.35-.73.65-.21.3-.34.66-.41,1.07Z"/>
          <path class="cls-35" d="M15.3,65.92c-.36,0-.69-.05-1-.16-.31-.11-.55-.2-.7-.28v-.46c.1.05.23.11.41.17s.37.12.57.17c.21.05.4.07.59.07.43,0,.74-.1.93-.29.19-.2.28-.39.28-.6,0-.24-.09-.45-.27-.62-.18-.17-.4-.33-.66-.47-.26-.14-.53-.29-.8-.46-.27-.16-.49-.36-.67-.58s-.27-.5-.27-.83c0-.22.05-.44.17-.67.11-.22.29-.41.54-.57s.58-.23,1.01-.23.79.04,1.07.12c.28.08.49.14.63.2l-.12.8c-.33-.18-.63-.32-.93-.41-.29-.1-.54-.16-.74-.2-.22,0-.39.08-.52.24-.13.16-.2.33-.2.51,0,.24.09.44.28.6.19.17.42.32.69.47.28.15.55.3.82.46.27.16.5.35.69.57.19.22.28.5.28.83,0,.44-.18.82-.53,1.13-.35.31-.86.47-1.53.47Z"/>
          <path class="cls-35" d="M19.2,59.18c-.18,0-.33-.07-.44-.2-.12-.13-.18-.28-.18-.44,0-.18.06-.33.18-.45.12-.12.27-.18.44-.18s.32.06.45.18c.13.12.19.27.19.45,0,.16-.06.31-.19.44s-.27.2-.45.2ZM18.7,65.77v-5.51h1.01v5.51h-1.01Z"/>
          <path class="cls-35" d="M23.05,68.48c-.39,0-.75-.05-1.07-.15-.32-.1-.58-.25-.76-.44-.19-.2-.28-.45-.28-.75,0-.24.07-.48.21-.73.14-.25.4-.46.79-.63-.18-.06-.32-.16-.41-.29-.1-.13-.15-.3-.15-.5s.08-.41.25-.62c.17-.21.38-.41.63-.6-.27-.14-.49-.34-.66-.61-.17-.27-.26-.6-.26-.99s.07-.7.21-.96c.14-.26.32-.47.54-.63.22-.16.46-.28.71-.35s.5-.11.74-.11c.21,0,.42.03.62.1.2.06.38.14.53.23l1.07-.3.24.52-.76.38c.07.13.13.27.17.42.04.15.06.32.06.51,0,.38-.07.7-.21.96-.14.26-.33.47-.55.62s-.47.27-.73.33c-.26.07-.51.1-.74.1-.06,0-.11,0-.17,0-.06,0-.11,0-.17-.02-.07.02-.16.07-.27.14s-.2.15-.27.25-.12.2-.12.3c0,.18.13.29.38.34.26.05.62.07,1.09.07.72,0,1.3.07,1.74.2.43.13.65.42.65.85,0,.38-.13.75-.4,1.12s-.62.66-1.08.89c-.46.23-.98.35-1.57.35ZM23.25,67.92c.49,0,.91-.09,1.27-.28.36-.19.64-.41.85-.68s.3-.51.3-.73c-.16-.06-.36-.12-.6-.16s-.47-.07-.71-.08c-.24-.01-.45-.02-.64-.02-.26,0-.5,0-.73-.01-.22,0-.42-.03-.6-.06-.11.1-.23.24-.35.43-.12.19-.18.39-.18.6,0,.28.11.51.32.7.22.19.57.29,1.07.29ZM23.39,63.61c.75,0,1.12-.51,1.12-1.52,0-.28-.05-.54-.15-.78-.1-.24-.24-.43-.41-.57-.17-.15-.36-.22-.56-.22-.37,0-.64.14-.83.43-.19.29-.29.67-.29,1.14,0,.42.11.78.33,1.08s.48.44.79.44Z"/>
          <path class="cls-35" d="M27.58,65.77v-3.83c0-.28-.04-.51-.12-.69s-.16-.31-.26-.41-.18-.18-.24-.23l.62-.46,1,.89c.3-.28.58-.51.85-.68.26-.17.58-.25.93-.25.19,0,.39.05.62.15.22.1.42.28.58.54.16.26.24.65.24,1.15v3.82h-1.04v-3.69c0-.38-.07-.68-.2-.88-.13-.21-.38-.31-.74-.31s-.75.23-1.21.68v4.21h-1.04Z"/>
          <path class="cls-35" d="M33.79,65.77v-8.07h1.18v3.61h3.69v-3.61h1.18v8.07h-1.18v-4h-3.69v4h-1.18Z"/>
          <path class="cls-35" d="M45.42,65.93l-.99-.89c-.29.27-.58.48-.86.64-.28.16-.59.24-.92.24s-.63-.11-.9-.33c-.27-.22-.4-.53-.4-.94,0-.32.11-.58.32-.8.21-.22.48-.39.8-.52.33-.13.66-.23,1.01-.29.35-.07.66-.11.94-.12v-1.15c0-.67-.39-1.01-1.17-1.01-.2,0-.44.02-.7.07-.26.04-.56.12-.88.23l-.11-.3c.09-.07.24-.16.45-.26.21-.1.46-.18.73-.26.28-.08.56-.12.84-.12.46,0,.82.07,1.07.2.25.13.43.3.54.51s.17.42.2.65.04.42.04.6v2.07c0,.28.04.5.12.68s.17.32.27.41.19.17.25.22l-.63.46ZM43.12,65.36c.2-.04.39-.12.59-.24.2-.12.37-.24.51-.37.14-.13.21-.22.21-.27v-1.26c-.61.04-1.09.17-1.46.4-.36.22-.54.46-.54.71s.07.47.2.65c.13.18.3.31.49.37Z"/>
          <path class="cls-35" d="M48.42,65.92c-.19,0-.39-.05-.62-.14-.22-.09-.42-.27-.58-.54-.16-.26-.24-.64-.24-1.14v-3.84h1.04v3.9c0,.37.07.67.2.87.13.21.38.31.74.31.19,0,.39-.07.6-.22.21-.15.41-.33.61-.56v-4.3h1.04v3.88c0,.28.04.5.12.68s.17.31.27.41c.1.1.18.18.25.24l-.63.45-.99-.89c-.3.28-.58.5-.85.66s-.58.23-.94.23Z"/>
          <path class="cls-35" d="M54.26,65.92c-.36,0-.69-.05-1.01-.16-.31-.11-.55-.2-.7-.28v-.46c.1.05.23.11.41.17s.37.12.57.17c.21.05.4.07.59.07.43,0,.74-.1.93-.29.19-.2.28-.39.28-.6,0-.24-.09-.45-.27-.62-.18-.17-.4-.33-.66-.47-.26-.14-.53-.29-.8-.46-.27-.16-.49-.36-.67-.58-.18-.22-.27-.5-.27-.83,0-.22.05-.44.16-.67.11-.22.29-.41.54-.57.25-.15.58-.23,1.01-.23s.79.04,1.07.12c.28.08.49.14.63.2l-.12.8c-.33-.18-.63-.32-.93-.41-.29-.1-.54-.16-.74-.2-.22,0-.39.08-.52.24-.13.16-.2.33-.2.51,0,.24.09.44.28.6.19.17.42.32.7.47.28.15.55.3.82.46.27.16.5.35.69.57.19.22.28.5.28.83,0,.44-.18.82-.53,1.13-.35.31-.86.47-1.53.47Z"/>
          <path class="cls-35" d="M62.99,65.92c-.48,0-.93-.06-1.36-.17s-.76-.21-.99-.3v-.57c.14.07.33.15.56.25.24.1.5.19.78.26.28.07.56.11.83.11.54,0,.97-.14,1.3-.42s.49-.68.49-1.19c0-.32-.09-.59-.28-.82-.19-.23-.43-.43-.72-.62-.3-.19-.61-.37-.95-.54s-.65-.37-.94-.57c-.3-.21-.54-.45-.73-.73-.19-.28-.28-.61-.28-.99,0-.32.08-.63.26-.94s.44-.58.82-.79.87-.32,1.48-.32c.33,0,.69.04,1.08.12.39.08.73.17,1.01.26l-.12.83c-.47-.2-.94-.37-1.4-.51-.46-.13-.93-.2-1.41-.2-.24.11-.4.26-.49.45-.09.18-.14.38-.14.6,0,.33.1.61.29.86s.45.48.76.68.64.41.99.6c.35.19.67.41.99.63.31.23.57.48.76.77.19.29.29.62.29,1,0,.42-.11.81-.32,1.15-.21.34-.53.62-.95.82s-.96.3-1.6.3Z"/>
          <path class="cls-35" d="M68.87,65.92c-.33,0-.61-.1-.84-.29-.23-.2-.34-.52-.34-.99v-3.94l-.99-.2v-.24h.99v-.44l1.02-.74v1.18h1.45v.44h-1.45v4c0,.23.05.41.14.54s.27.19.53.19c.11,0,.24-.02.38-.05.14-.04.27-.08.4-.13v.34c-.18.08-.38.16-.6.23-.22.07-.45.1-.69.1Z"/>
          <path class="cls-35" d="M72.64,65.92c-.19,0-.39-.05-.62-.14-.22-.09-.42-.27-.58-.54-.16-.26-.24-.64-.24-1.14v-3.84h1.04v3.9c0,.37.07.67.2.87.13.21.38.31.74.31.19,0,.39-.07.6-.22.21-.15.41-.33.61-.56v-4.3h1.04v3.88c0,.28.04.5.12.68s.17.31.27.41c.1.1.18.18.25.24l-.63.45-.99-.89c-.3.28-.58.5-.85.66s-.58.23-.94.23Z"/>
          <path class="cls-35" d="M81.6,65.93l-1-.89c-.3.28-.58.49-.85.65-.26.15-.58.23-.93.23-.18,0-.39-.04-.62-.12s-.46-.22-.68-.42-.4-.5-.55-.88c-.15-.39-.22-.88-.22-1.49,0-.32.04-.64.13-.98.09-.34.22-.65.4-.94.18-.29.4-.52.68-.69.27-.17.59-.26.96-.26.24,0,.49.04.77.13.28.09.57.23.88.43v-3.24h1.04v6.69c0,.28.04.5.12.68.08.18.16.32.26.42s.18.18.24.24l-.62.45ZM78.91,65.37c.32-.02.6-.09.85-.21.25-.11.44-.23.59-.35s.22-.21.22-.27v-3.4c-.22-.15-.43-.25-.63-.32-.2-.07-.38-.1-.55-.1-.33,0-.6.1-.83.31s-.41.49-.54.84c-.13.35-.19.75-.19,1.19,0,.69.11,1.23.33,1.62.22.39.47.62.76.69Z"/>
          <path class="cls-35" d="M83.94,59.18c-.18,0-.33-.07-.45-.2-.12-.13-.18-.28-.18-.44,0-.18.06-.33.18-.45.12-.12.27-.18.45-.18s.32.06.45.18c.13.12.19.27.19.45,0,.16-.06.31-.19.44s-.27.2-.45.2ZM83.44,65.77v-5.51h1.01v5.51h-1.01Z"/>
          <path class="cls-35" d="M88.16,65.92c-.46,0-.87-.11-1.24-.32-.37-.21-.67-.52-.89-.93-.22-.41-.33-.91-.33-1.49s.09-1.06.27-1.45c.18-.39.42-.7.72-.94.3-.24.62-.41.96-.51.34-.11.67-.16.99-.16.46,0,.88.11,1.25.32.37.21.67.52.89.93.22.41.33.91.33,1.5s-.09,1.06-.28,1.45c-.19.39-.43.7-.73.94-.3.24-.62.41-.96.51-.34.11-.67.16-.99.16ZM88.39,65.5c.28,0,.53-.08.73-.23s.37-.36.49-.6c.13-.25.22-.51.28-.8.06-.29.09-.56.09-.83,0-.45-.05-.86-.16-1.23-.11-.37-.29-.67-.55-.9s-.61-.34-1.05-.34c-.49.19-.85.51-1.07.98-.23.46-.34.96-.34,1.49,0,.43.05.83.16,1.21s.27.68.51.91c.23.23.54.34.92.34Z"/>
        </g>
        <g>
          <g>
            <text class="cls-4" transform="translate(39.28 75.98)"><tspan class="cls-28" x="0" y="0">W</tspan><tspan x="6.41" y="0">eb</tspan></text>
            <g>
              <path class="cls-5" d="M40.14,71.01l.94,4.04,1.12-4.04h.73l1.12,4.04.94-4.04h.74l-1.3,4.96h-.71l-1.15-4.12-1.15,4.12h-.71l-1.3-4.96h.73Z"/>
              <path class="cls-14" d="M48.39,72.46c.24.12.42.28.55.47.12.18.2.4.24.64.04.17.05.43.05.8h-2.65c.01.37.1.66.26.88s.41.33.75.33c.32,0,.57-.11.76-.31.11-.12.18-.26.23-.42h.6c-.02.13-.07.28-.16.44-.09.16-.19.3-.3.4-.18.18-.41.3-.69.37-.15.04-.31.05-.5.05-.45,0-.83-.16-1.15-.49s-.47-.79-.47-1.38.16-1.05.47-1.42c.31-.36.73-.54,1.24-.54.26,0,.51.06.75.18ZM48.62,73.88c-.02-.26-.08-.47-.17-.63-.17-.29-.45-.44-.83-.44-.28,0-.51.1-.7.3-.19.2-.29.46-.3.77h2.01Z"/>
              <path class="cls-11" d="M49.94,71h.59v1.8c.13-.17.29-.31.48-.4.18-.09.38-.14.6-.14.45,0,.82.16,1.1.46.28.31.42.77.42,1.37,0,.57-.14,1.05-.42,1.43-.28.38-.66.57-1.15.57-.28,0-.51-.07-.7-.2-.11-.08-.23-.2-.36-.38v.46h-.56v-4.98ZM52.26,75.16c.16-.26.25-.61.25-1.03,0-.38-.08-.7-.25-.95-.16-.25-.4-.38-.72-.38-.28,0-.52.1-.73.31-.21.21-.31.54-.31,1.01,0,.34.04.62.13.83.16.4.46.6.9.6.33,0,.57-.13.74-.39Z"/>
            </g>
          </g>
          <g>
            <text class="cls-4" transform="translate(56.25 75.98)"><tspan x="0" y="0">Designer</tspan></text>
            <g>
              <path class="cls-16" d="M56.81,71.01h2.01c.68,0,1.21.24,1.59.73.34.44.5,1,.5,1.68,0,.53-.1,1-.3,1.43-.35.75-.95,1.13-1.8,1.13h-2v-4.96ZM58.69,75.4c.23,0,.42-.02.56-.07.26-.09.47-.26.64-.51.13-.2.23-.46.29-.77.03-.19.05-.36.05-.52,0-.61-.12-1.09-.37-1.43-.25-.34-.64-.51-1.18-.51h-1.19v3.81h1.2Z"/>
              <path class="cls-30" d="M63.95,72.46c.24.12.42.28.55.47.12.18.2.4.24.64.04.17.05.43.05.8h-2.65c.01.37.1.66.26.88s.41.33.75.33c.32,0,.57-.11.76-.31.11-.12.18-.26.23-.42h.6c-.02.13-.07.28-.16.44-.09.16-.19.3-.3.4-.18.18-.41.3-.69.37-.15.04-.31.05-.5.05-.45,0-.83-.16-1.15-.49s-.47-.79-.47-1.38.16-1.05.47-1.42c.31-.36.73-.54,1.24-.54.26,0,.51.06.75.18ZM64.17,73.88c-.02-.26-.08-.47-.17-.63-.17-.29-.45-.44-.83-.44-.28,0-.51.1-.7.3-.19.2-.29.46-.3.77h2.01Z"/>
              <path class="cls-25" d="M65.91,74.84c.02.2.07.36.15.47.15.2.42.29.8.29.23,0,.42-.05.59-.15.17-.1.26-.25.26-.45,0-.16-.07-.27-.21-.35-.09-.05-.26-.11-.52-.17l-.48-.12c-.31-.08-.54-.16-.68-.26-.26-.17-.39-.39-.39-.68,0-.34.12-.62.37-.83.25-.21.58-.32,1-.32.54,0,.94.16,1.18.48.15.2.22.42.22.66h-.58c-.01-.14-.06-.26-.14-.38-.14-.16-.38-.24-.73-.24-.23,0-.4.04-.52.13s-.18.2-.18.35c0,.16.08.28.23.38.09.06.22.11.4.15l.4.1c.44.11.73.21.88.31.24.16.35.4.35.73s-.12.6-.37.83c-.25.23-.62.35-1.12.35-.54,0-.92-.12-1.14-.37-.22-.24-.34-.55-.36-.91h.58Z"/>
              <path class="cls-20" d="M69.01,71.01h.62v.69h-.62v-.69ZM69.01,72.38h.62v3.6h-.62v-3.6Z"/>
              <path class="cls-26" d="M72.56,72.5c.12.08.23.19.35.34v-.46h.56v3.29c0,.46-.07.82-.2,1.09-.25.49-.73.74-1.43.74-.39,0-.72-.09-.98-.26-.27-.17-.41-.45-.45-.82h.62c.03.16.09.29.18.38.14.14.35.2.65.2.47,0,.77-.17.92-.49.09-.19.12-.54.12-1.04-.12.19-.27.32-.44.41-.17.09-.4.13-.68.13-.39,0-.73-.14-1.03-.42s-.44-.74-.44-1.38c0-.61.15-1.08.44-1.42s.65-.51,1.07-.51c.28,0,.53.07.74.21ZM72.64,73.16c-.18-.22-.42-.32-.71-.32-.43,0-.72.2-.88.6-.08.21-.12.5-.12.84,0,.41.08.72.25.93.17.21.39.32.67.32.44,0,.74-.2.92-.59.1-.22.15-.48.15-.78,0-.45-.09-.78-.28-1Z"/>
              <path class="cls-7" d="M74.39,72.36h.58v.51c.17-.21.35-.36.54-.46.19-.09.4-.14.64-.14.51,0,.86.18,1.04.54.1.2.15.48.15.84v2.32h-.62v-2.28c0-.22-.03-.4-.1-.53-.11-.23-.3-.34-.59-.34-.14,0-.26.01-.35.04-.17.05-.31.15-.44.3-.1.12-.17.24-.2.37s-.04.31-.04.55v1.9h-.61v-3.62Z"/>
              <path class="cls-27" d="M80.5,72.46c.24.12.42.28.55.47.12.18.2.4.24.64.04.17.05.43.05.8h-2.65c.01.37.1.66.26.88s.41.33.75.33c.32,0,.57-.11.76-.31.11-.12.18-.26.23-.42h.6c-.02.13-.07.28-.16.44-.09.16-.19.3-.3.4-.18.18-.41.3-.69.37-.15.04-.31.05-.5.05-.45,0-.83-.16-1.15-.49s-.47-.79-.47-1.38.16-1.05.47-1.42c.31-.36.73-.54,1.24-.54.26,0,.51.06.75.18ZM80.72,73.88c-.02-.26-.08-.47-.17-.63-.17-.29-.45-.44-.83-.44-.28,0-.51.1-.7.3-.19.2-.29.46-.3.77h2.01Z"/>
              <path class="cls-8" d="M82.11,72.36h.58v.62c.05-.12.16-.27.35-.44.18-.17.4-.26.64-.26.01,0,.03,0,.06,0,.03,0,.07,0,.14.01v.64s-.07-.01-.1-.01-.06,0-.1,0c-.31,0-.54.1-.71.29-.16.2-.25.42-.25.68v2.08h-.61v-3.62Z"/>
            </g>
          </g>
          <g>
            <text class="cls-4" transform="translate(6.42 75.98)"><tspan x="0" y="0">Graphic &amp;</tspan></text>
            <g>
              <path class="cls-2" d="M10.3,71.16c.49.26.79.71.91,1.36h-.67c-.08-.36-.25-.63-.5-.79-.25-.17-.58-.25-.96-.25-.46,0-.85.17-1.16.52-.31.34-.47.86-.47,1.54,0,.59.13,1.07.39,1.44.26.37.68.56,1.27.56.45,0,.82-.13,1.11-.39.29-.26.44-.68.45-1.26h-1.55v-.56h2.18v2.66h-.43l-.16-.64c-.23.25-.43.42-.6.52-.3.17-.67.25-1.13.25-.59,0-1.09-.19-1.52-.57-.46-.48-.69-1.13-.69-1.97s.23-1.49.68-1.98c.43-.47.98-.7,1.66-.7.47,0,.87.09,1.21.27Z"/>
              <path class="cls-21" d="M12.26,72.36h.58v.62c.05-.12.16-.27.35-.44.19-.17.4-.26.64-.26.01,0,.03,0,.06,0,.03,0,.07,0,.14.01v.64s-.07-.01-.1-.01-.06,0-.1,0c-.31,0-.54.1-.71.29-.17.2-.25.42-.25.68v2.08h-.61v-3.62Z"/>
              <path class="cls-1" d="M16.49,73.78c.14-.02.23-.08.28-.18.03-.05.04-.13.04-.23,0-.21-.07-.36-.22-.45-.15-.09-.36-.14-.63-.14-.32,0-.54.09-.68.26-.07.09-.12.24-.14.42h-.57c.01-.45.16-.76.43-.93.28-.17.6-.26.97-.26.43,0,.77.08,1.04.24.26.16.39.42.39.76v2.08c0,.06.01.11.04.15.03.04.08.06.16.06.03,0,.06,0,.09,0,.03,0,.07,0,.11-.02v.45c-.09.03-.17.04-.22.05-.05,0-.12.01-.2.01-.21,0-.36-.08-.46-.22-.05-.08-.08-.19-.1-.33-.12.16-.3.3-.53.42s-.49.18-.77.18c-.34,0-.61-.1-.82-.31-.21-.2-.32-.46-.32-.76,0-.34.1-.6.31-.78.21-.18.48-.3.82-.34l.97-.12ZM15.21,75.43c.13.1.28.15.46.15.21,0,.42-.05.62-.15.34-.16.51-.43.51-.81v-.49c-.08.05-.17.09-.29.12-.12.03-.23.05-.34.07l-.37.05c-.22.03-.39.08-.5.14-.19.11-.28.27-.28.51,0,.18.06.31.19.42Z"/>
              <path class="cls-34" d="M18.35,72.38h.59v.48c.12-.17.25-.29.4-.38.21-.14.45-.2.72-.2.41,0,.76.16,1.04.47s.43.76.43,1.35c0,.79-.21,1.35-.62,1.69-.26.21-.57.32-.91.32-.27,0-.5-.06-.69-.18-.11-.07-.23-.18-.36-.35v1.85h-.61v-5.04ZM20.64,75.21c.19-.24.28-.59.28-1.07,0-.29-.04-.54-.12-.74-.16-.4-.45-.6-.87-.6s-.71.21-.87.63c-.08.23-.12.51-.12.86,0,.28.04.52.12.71.16.37.45.56.87.56.28,0,.52-.12.71-.36Z"/>
              <path class="cls-24" d="M22.25,71h.61v1.85c.14-.18.27-.31.39-.39.2-.13.44-.19.73-.19.52,0,.88.18,1.07.55.1.2.15.48.15.83v2.32h-.62v-2.28c0-.27-.03-.46-.1-.58-.11-.2-.32-.3-.62-.3-.25,0-.48.09-.69.26-.21.17-.31.5-.31.98v1.92h-.61v-4.98Z"/>
              <path class="cls-38" d="M26.1,71.01h.62v.69h-.62v-.69ZM26.1,72.38h.62v3.6h-.62v-3.6Z"/>
              <path class="cls-29" d="M30.03,72.55c.25.2.41.54.46,1.02h-.59c-.04-.22-.12-.41-.25-.56-.13-.15-.33-.22-.62-.22-.39,0-.67.19-.83.57-.11.25-.16.55-.16.91s.08.67.23.92c.15.25.39.37.72.37.25,0,.45-.08.6-.23s.25-.37.31-.63h.59c-.07.48-.24.83-.51,1.05-.27.22-.62.33-1.04.33-.47,0-.85-.17-1.13-.52-.28-.35-.42-.78-.42-1.3,0-.63.15-1.13.46-1.48s.7-.53,1.18-.53c.41,0,.74.1,1,.3Z"/>
              <path class="cls-23" d="M33.57,72.61c-.07-.16-.11-.32-.11-.48,0-.32.11-.58.32-.8.22-.21.51-.32.87-.32s.61.1.81.29.29.43.29.7c0,.32-.1.6-.3.83-.12.14-.31.3-.59.48l.91,1.08c.06-.18.1-.31.13-.4s.05-.21.07-.37h.58c-.04.32-.12.62-.23.91-.12.29-.17.41-.17.35l.88,1.07h-.78l-.47-.57c-.18.2-.35.35-.51.44-.27.16-.58.24-.93.24-.52,0-.89-.14-1.12-.42-.23-.28-.35-.59-.35-.94,0-.38.11-.69.34-.94.14-.15.4-.34.78-.57-.21-.24-.35-.44-.42-.61ZM35.04,75.39c.18-.11.32-.24.42-.38l-1.12-1.37c-.32.21-.53.37-.62.49-.15.17-.22.38-.22.62,0,.26.1.47.29.61.19.14.4.21.62.21.25,0,.46-.06.65-.17ZM34.99,72.58c.13-.15.2-.32.2-.51,0-.15-.05-.27-.14-.38-.1-.11-.23-.16-.39-.16-.25,0-.42.08-.52.25-.05.09-.07.18-.07.28,0,.14.04.27.11.4s.2.29.38.49c.21-.15.36-.27.44-.37Z"/>
            </g>
          </g>
        </g>
      </g>
      <g>
        <path class="cls-32" d="M.39,105.43v-10.45h6.17v1.06l-2.92-.49c-.32,0-.61.02-.87.07-.26.05-.55.11-.85.2v3.84h3.35v.6H1.92v5.18H.39Z"/>
        <path class="cls-17" d="M7.58,105.43v-7.14h.92l.36,1.33c.14-.23.33-.46.58-.69.25-.23.53-.43.85-.61.32-.17.65-.29.99-.34l.16,1.09c-.27,0-.57.06-.88.17-.32.12-.62.26-.91.44s-.53.36-.73.55v5.2h-1.33Z"/>
        <path class="cls-36" d="M17.38,105.63l-1.28-1.15c-.38.35-.75.62-1.11.83-.36.21-.76.31-1.19.31s-.82-.14-1.17-.43c-.35-.28-.52-.69-.52-1.22,0-.41.14-.75.41-1.03.27-.28.62-.5,1.04-.67s.86-.29,1.31-.38c.45-.08.86-.14,1.22-.16v-1.48c0-.87-.5-1.31-1.52-1.31-.26,0-.57.03-.91.09s-.72.16-1.14.29l-.14-.39c.12-.09.31-.21.58-.33.27-.13.59-.24.95-.34.36-.1.72-.15,1.09-.15.6,0,1.06.09,1.39.26.33.17.56.39.69.66s.22.55.25.84c.03.29.05.55.05.78v2.68c0,.36.05.65.15.88.1.23.22.41.35.54.13.13.24.22.32.28l-.82.6ZM14.4,104.89c.25-.05.51-.16.77-.31s.48-.31.66-.47c.18-.16.27-.28.27-.36v-1.63c-.79.05-1.42.22-1.89.51-.47.29-.7.6-.7.92s.09.61.26.84.39.4.64.48Z"/>
        <path class="cls-18" d="M19.31,105.43v-.47l4.22-6.14-3.88.14-.16-.66h5.48v.44l-4.2,6.13,4.25-.17.16.74h-5.86Z"/>
        <path class="cls-6" d="M31.41,105.63l-1.28-1.15c-.38.35-.75.62-1.11.83-.36.21-.76.31-1.19.31s-.82-.14-1.17-.43c-.35-.28-.52-.69-.52-1.22,0-.41.14-.75.41-1.03.27-.28.62-.5,1.04-.67.42-.17.86-.29,1.31-.38.45-.08.86-.14,1.22-.16v-1.48c0-.87-.51-1.31-1.52-1.31-.26,0-.57.03-.91.09-.34.06-.72.16-1.15.29l-.14-.39c.12-.09.31-.21.58-.33s.59-.24.95-.34c.36-.1.72-.15,1.09-.15.6,0,1.06.09,1.39.26.33.17.56.39.7.66.14.27.22.55.25.84.03.29.05.55.05.78v2.68c0,.36.05.65.15.88.1.23.21.41.35.54.13.13.24.22.32.28l-.82.6ZM28.42,104.89c.25-.05.51-.16.77-.31s.48-.31.66-.47.27-.28.27-.36v-1.63c-.79.05-1.42.22-1.89.51-.47.29-.7.6-.7.92s.09.61.26.84.39.4.64.48Z"/>
        <path class="cls-10" d="M39.32,105.63l-1.29-1.15c-.39.36-.75.64-1.1.84-.34.2-.75.3-1.21.3-.23,0-.5-.05-.8-.15-.31-.1-.6-.28-.88-.54-.28-.26-.52-.65-.71-1.15s-.28-1.14-.28-1.93c0-.41.06-.83.17-1.27.12-.44.29-.84.52-1.22.23-.37.52-.67.88-.9s.77-.34,1.24-.34c.3,0,.64.06.99.17.36.12.74.3,1.14.55v-4.2h1.34v8.67c0,.36.05.65.15.88.1.23.21.41.34.54.13.13.23.23.32.31l-.81.58ZM35.83,104.91c.41-.03.78-.12,1.1-.27.32-.15.58-.3.77-.46.19-.16.28-.27.28-.35v-4.41c-.28-.19-.56-.33-.81-.42-.26-.09-.5-.13-.72-.13-.42,0-.78.13-1.08.4-.3.27-.53.63-.69,1.09s-.25.97-.25,1.54c0,.89.14,1.59.43,2.1.28.5.61.8.98.9Z"/>
        <path class="cls-9" d="M48.6,105.62c-.62,0-1.21-.07-1.76-.22s-.98-.28-1.29-.4v-.74c.18.08.42.19.73.32.3.13.64.25,1.01.34.37.09.73.14,1.07.14.7,0,1.26-.18,1.68-.54.43-.36.64-.88.64-1.54,0-.41-.12-.76-.36-1.06s-.55-.56-.94-.81c-.38-.24-.79-.48-1.22-.7s-.84-.47-1.22-.74c-.38-.27-.7-.58-.94-.95-.24-.36-.36-.79-.36-1.29,0-.41.11-.82.33-1.22.22-.41.57-.74,1.06-1.02.48-.27,1.12-.41,1.91-.41.43,0,.9.05,1.41.16.5.1.94.22,1.31.33l-.16,1.07c-.61-.26-1.22-.48-1.82-.66-.6-.17-1.21-.26-1.83-.26-.31.15-.52.34-.64.58-.12.24-.18.5-.18.78,0,.42.13.79.38,1.11s.58.62.99.88.83.53,1.28.78c.45.25.87.53,1.28.82.41.29.73.63.99.99.25.37.38.8.38,1.29,0,.55-.14,1.04-.41,1.49-.27.45-.68.8-1.23,1.06s-1.24.39-2.07.39Z"/>
        <path class="cls-3" d="M54.45,105.43v-10.79h1.28v4.66c.39-.37.78-.66,1.18-.86.4-.21.83-.31,1.29-.31.25,0,.52.06.81.19.29.13.54.36.74.7.21.34.31.84.31,1.49v4.91h-1.33v-4.75c0-.5-.09-.88-.26-1.15s-.5-.4-.97-.4c-.23,0-.5.07-.81.2s-.62.34-.92.64v5.46h-1.33Z"/>
        <path class="cls-22" d="M66.99,105.63l-1.28-1.15c-.38.35-.75.62-1.11.83-.36.21-.76.31-1.19.31s-.82-.14-1.17-.43c-.35-.28-.52-.69-.52-1.22,0-.41.14-.75.41-1.03.27-.28.62-.5,1.04-.67s.86-.29,1.31-.38c.45-.08.86-.14,1.22-.16v-1.48c0-.87-.51-1.31-1.52-1.31-.26,0-.57.03-.91.09-.34.06-.72.16-1.14.29l-.14-.39c.12-.09.31-.21.58-.33.27-.13.59-.24.95-.34.36-.1.72-.15,1.09-.15.6,0,1.06.09,1.39.26.33.17.56.39.69.66s.22.55.25.84c.03.29.05.55.05.78v2.68c0,.36.05.65.15.88.1.23.22.41.35.54.13.13.24.22.32.28l-.82.6ZM64,104.89c.25-.05.51-.16.77-.31.26-.15.48-.31.66-.47.18-.16.27-.28.27-.36v-1.63c-.79.05-1.42.22-1.89.51-.47.29-.7.6-.7.92s.09.61.26.84c.17.24.39.4.64.48Z"/>
        <path class="cls-13" d="M69.4,105.43v-10.79h1.28v4.66c.39-.37.78-.66,1.18-.86.4-.21.83-.31,1.29-.31.25,0,.52.06.81.19.29.13.54.36.74.7.21.34.31.84.31,1.49v4.91h-1.33v-4.75c0-.5-.09-.88-.26-1.15s-.5-.4-.97-.4c-.23,0-.5.07-.81.2s-.62.34-.92.64v5.46h-1.33Z"/>
        <path class="cls-37" d="M77.98,96.89c-.23,0-.42-.08-.58-.25-.15-.17-.23-.36-.23-.57,0-.23.08-.43.23-.58.15-.16.34-.24.58-.24s.41.08.58.24c.16.16.25.35.25.58,0,.21-.08.4-.25.57s-.36.25-.58.25ZM77.33,105.43v-7.14h1.31v7.14h-1.31Z"/>
        <path class="cls-33" d="M86.52,105.63l-1.29-1.15c-.39.36-.75.64-1.1.84-.34.2-.75.3-1.21.3-.23,0-.5-.05-.8-.15-.31-.1-.6-.28-.88-.54-.28-.26-.52-.65-.71-1.15-.19-.5-.29-1.14-.29-1.93,0-.41.06-.83.17-1.27.12-.44.29-.84.52-1.22.23-.37.52-.67.88-.9.35-.23.77-.34,1.24-.34.3,0,.64.06,1,.17.36.12.74.3,1.14.55v-4.2h1.34v8.67c0,.36.05.65.15.88.1.23.21.41.34.54.13.13.23.23.32.31l-.81.58ZM83.03,104.91c.41-.03.78-.12,1.1-.27.32-.15.58-.3.77-.46.19-.16.28-.27.28-.35v-4.41c-.28-.19-.56-.33-.81-.42-.26-.09-.5-.13-.72-.13-.42,0-.78.13-1.08.4-.3.27-.53.63-.7,1.09s-.25.97-.25,1.54c0,.89.14,1.59.43,2.1.28.5.61.8.98.9Z"/>
        <path class="cls-19" d="M89.55,96.89c-.23,0-.42-.08-.58-.25-.15-.17-.23-.36-.23-.57,0-.23.08-.43.23-.58.15-.16.34-.24.58-.24s.41.08.58.24c.16.16.25.35.25.58,0,.21-.08.4-.25.57s-.36.25-.58.25ZM88.9,105.43v-7.14h1.31v7.14h-1.31Z"/>
      </g>
      <g>
        <path class="cls-15" d="M53.76.37v12.08h-1.1v-.34c0-1.19-.24-2.4-.67-3.54-.03-.09-.06-.19-.1-.28-.73-1.99-1.98-3.61-3.67-4.73-1.31-.87-2.89-1.43-4.72-1.63h-.03c-.5-.06-1.03-.08-1.57-.08h0s-11.93-.01-11.93-.01v21.95h6.4c.61,0,1.48-.49,2.28-1.18,1.08-.94,2.01-2.24,1.93-3.21.37.15,1.83,1.52,1.83,1.65v10.06h-1.46c.13-2.03-.72-3.87-2.3-4.97-.41-.3-.86-.53-1.36-.71-.26-.1-1.91-.54-2.02-.54h-5.3v18.84s0,.1.04.18h0c.23,1.41,1.18,2.56,2.47,3.07.18.07.37.13.57.17.03.01.06.01.09.02,0,0,.01,0,.02.01.57.18,1.16.28,1.76.39.63.11.6-.16.54.73h-17.21c-.6-.48.09-.65.52-.76.58-.15,1.08-.32,1.51-.5.03-.01.06-.02.09-.03.02-.01.05-.02.07-.03.09-.03.17-.07.25-.11.1-.05.2-.1.29-.15.01,0,.02-.01.03-.02.08-.04.15-.09.22-.13.74-.45,1.15-.99,1.38-1.62.24-.51.37-1.08.37-1.67V5.72c0-.21-.02-.42-.06-.62v-.07c-.02-.16-.07-.34-.14-.51-.01-.06-.03-.12-.06-.18-.05-.12-.1-.24-.17-.37-.06-.1-.12-.21-.19-.32-.04-.08-.09-.15-.15-.23-.08-.1-.16-.21-.24-.31-.01-.02-.03-.03-.04-.05-.04-.04-.07-.07-.11-.11-.41-.44-.88-.79-1.36-.95-.2-.07-.42-.11-.63-.13h-.02s-.06-.01-.09-.02c-.11-.01-.21-.02-.31-.04-.02,0-.05-.01-.07-.01h-.03c-.61-.08-1.16-.25-1.43-1.06l21.97-.23,12.68-.13h1.23Z"/>
        <path class="cls-12" d="M50.82,48.12c-2.07-.59-6.6-3.29-8.26-1.31-.78.93-.09,1.8-1.62,1.48v-14.63h1.09c.94,8.38,9.36,16.22,18.03,13.81,5.43-1.51,7.82-7.06,5.85-12.24-3.38-8.85-20.66-8.32-24.42-19.13-1.15-3.34-.64-7.45,1.34-10.37.68-1.01,1.13-1.65,1.58-1.53.65.17,2.75.98,2.75,1-.54,1.2-.98,2.7-.87,4.16,0,.04,0,.07.01.11.04,4.55,3.13,6.65,7.2,8.89,7.13,3.92,18.17,6.21,18.94,16.2.95,12.33-11.44,16.43-21.62,13.56Z"/>
        <path class="cls-31" d="M69.5.74v13.9h-1.1c-.83-6.83-5.71-13.61-13.18-13.54V0c2.02-.06,4.22.39,6.15.99,1.66.52,5.12,2.78,6.52,1.6.63-.54.42-2.03,1.61-1.86Z"/>
      </g>
    </g>
  </g>
</svg>